<svg width="39" height="34" viewBox="0 0 39 34" fill="none" xmlns="http://www.w3.org/2000/svg">
<g id="ant-design:home-filled">
<path id="Vector" d="M36.049 16.7676L20.3614 3.10117C20.2485 3.0025 20.1143 2.92423 19.9666 2.87082C19.8189 2.81741 19.6606 2.78992 19.5007 2.78992C19.3408 2.78992 19.1825 2.81741 19.0348 2.87082C18.8871 2.92423 18.7529 3.0025 18.6399 3.10117L2.95234 16.7676C2.49531 17.166 2.23633 17.7072 2.23633 18.2717C2.23633 19.4437 3.32939 20.3967 4.67383 20.3967H6.32676V30.1484C6.32676 30.7361 6.87139 31.2109 7.54551 31.2109H17.0632V23.7734H21.3288V31.2109H31.4559C32.13 31.2109 32.6746 30.7361 32.6746 30.1484V20.3967H34.3275C34.975 20.3967 35.5958 20.1742 36.0528 19.7725C37.0012 18.9424 37.0012 17.5977 36.049 16.7676Z" fill="#FFCC00"/>
</g>
</svg>
